<?xml version="1.0" encoding="UTF-8"?>
<svg width="400" height="300" viewBox="0 0 400 300" fill="none" xmlns="http://www.w3.org/2000/svg">
  <!-- Background with subtle gradient -->
  <rect width="400" height="300" fill="url(#paint0_linear)" />
  
  <!-- Cutting board base -->
  <path d="M80,230 C80,220 320,220 320,230 L310,250 H90 L80,230" fill="#E7C9A9" />
  <path d="M90,250 H310 L315,260 H85 L90,250" fill="#D4A373" />
  
  <!-- Olive Oil Bottle -->
  <g>
    <!-- Bottle Body -->
    <path d="M140,120 L150,80 L170,80 L180,120 L180,210 C180,220 170,230 160,230 C150,230 140,220 140,210 L140,120 Z" fill="#EAF5FF" fill-opacity="0.7" />
    <path d="M140,120 L150,80 L170,80 L180,120 L180,210 C180,220 170,230 160,230 C150,230 140,220 140,210 L140,120 Z" stroke="#60A5FA" stroke-width="1" />
    
    <!-- Neck and Cap -->
    <path d="M150,80 L170,80 L170,70 L150,70 Z" fill="#93C5FD" stroke="#60A5FA" stroke-width="1" />
    <path d="M155,70 L165,70 L165,60 L155,60 Z" fill="#2563EB" stroke="#1D4ED8" stroke-width="1" />
    
    <!-- Label -->
    <rect x="147" y="150" width="26" height="40" rx="2" fill="#BFDBFE" stroke="#60A5FA" stroke-width="1" />
    <line x1="153" y1="160" x2="167" y2="160" stroke="#3B82F6" stroke-width="1" />
    <line x1="153" y1="165" x2="167" y2="165" stroke="#3B82F6" stroke-width="1" />
    <line x1="153" y1="170" x2="167" y2="170" stroke="#3B82F6" stroke-width="1" />
    
    <!-- Highlights/Reflections -->
    <path d="M145,140 Q155,145 145,150" fill="#FFFFFF" fill-opacity="0.5" />
  </g>

  <!-- Bread with details -->
  <g>
    <!-- Main Bread Shape -->
    <path d="M270,110 Q300,80 330,110 Q345,120 330,140 Q300,170 270,140 Q255,120 270,110 Z" fill="#F9E4B7" />
    <path d="M270,110 Q300,80 330,110 Q345,120 330,140 Q300,170 270,140 Q255,120 270,110 Z" stroke="#D97706" stroke-width="1" />
    
    <!-- Crust Details -->
    <path d="M270,110 Q300,90 330,110" stroke="#B45309" stroke-width="2" fill="none" />
    
    <!-- Scoring Lines -->
    <path d="M285,115 L315,115" stroke="#B45309" stroke-width="1" stroke-dasharray="2 1" />
    <path d="M280,125 L320,125" stroke="#B45309" stroke-width="1" stroke-dasharray="2 1" />
    
    <!-- Texture & Crumb -->
    <circle cx="290" cy="135" r="2" fill="#B45309" fill-opacity="0.3" />
    <circle cx="310" cy="132" r="1.5" fill="#B45309" fill-opacity="0.3" />
    <circle cx="300" cy="140" r="2" fill="#B45309" fill-opacity="0.3" />
  </g>

  <!-- Grapes Cluster -->
  <g>
    <!-- Stem -->
    <path d="M100,100 C110,90 120,95 125,105" stroke="#84CC16" stroke-width="1.5" fill="none" />
    <path d="M125,105 C130,115 135,110 140,108" stroke="#84CC16" stroke-width="1" fill="none" />
    
    <!-- Leaves -->
    <path d="M100,100 Q90,85 105,80 Q120,85 100,100" fill="#A3E635" fill-opacity="0.9" />
    <path d="M100,100 Q90,85 105,80 Q120,85 100,100" stroke="#84CC16" stroke-width="0.5" fill="none" />
    
    <!-- Grapes -->
    <circle cx="125" cy="105" r="8" fill="#8B5CF6" />
    <circle cx="115" cy="115" r="8" fill="#A855F7" />
    <circle cx="135" cy="115" r="8" fill="#7C3AED" />
    <circle cx="125" cy="123" r="8" fill="#8B5CF6" />
    <circle cx="110" cy="128" r="7" fill="#A855F7" />
    <circle cx="140" cy="128" r="7" fill="#7C3AED" />
    <circle cx="125" cy="135" r="7" fill="#8B5CF6" />
    
    <!-- Highlights -->
    <circle cx="123" cy="103" r="2" fill="#FFFFFF" fill-opacity="0.5" />
    <circle cx="113" cy="113" r="2" fill="#FFFFFF" fill-opacity="0.5" />
    <circle cx="133" cy="113" r="2" fill="#FFFFFF" fill-opacity="0.5" />
  </g>

  <!-- Small pieces of cheese -->
  <g>
    <path d="M220,160 L245,150 L235,180 Z" fill="#FEF3C7" />
    <path d="M220,160 L245,150 L235,180 Z" stroke="#F59E0B" stroke-width="1" />
    <!-- Cheese Holes -->
    <circle cx="230" cy="165" r="2" fill="#F59E0B" fill-opacity="0.3" />
    <circle cx="238" cy="160" r="1.5" fill="#F59E0B" fill-opacity="0.3" />
  </g>

  <!-- Shadow beneath items -->
  <ellipse cx="200" cy="235" rx="120" ry="10" fill="#1E293B" fill-opacity="0.1" />

  <!-- Text with slight shadow for better readability -->
  <text x="200" y="275" font-family="system-ui, -apple-system, sans-serif" font-size="14" fill="#334155" text-anchor="middle" font-weight="500">
    Product Image Not Available
  </text>

  <!-- Definitions -->
  <defs>
    <linearGradient id="paint0_linear" x1="0" y1="0" x2="400" y2="300" gradientUnits="userSpaceOnUse">
      <stop stop-color="#F8FAFC" />
      <stop offset="1" stop-color="#F1F5F9" />
    </linearGradient>
  </defs>
</svg> 